<svg width="24" height="24" viewBox="0 0 24 24" fill="none" xmlns="http://www.w3.org/2000/svg">
<path d="M17.8997 5.9137V10.2599C17.8997 12.9268 16.5163 15.4028 14.2451 16.8007L12.2598 18.0226L10.252 14.603L12.7313 12.9496C13.3722 12.5222 13.7571 11.8029 13.7571 11.0327L13.7572 5.9137H17.8997ZM17.1313 6.68168H14.5249L14.5251 11.0327C14.5251 12.023 14.0479 12.9502 13.2477 13.526L13.1575 13.5886L11.2815 14.8394L12.5249 16.9573L13.8425 16.1466C15.8448 14.9142 17.0805 12.7507 17.1301 10.4066L17.1317 10.2599L17.1313 6.68168Z" fill="#08B89D"/>
<path d="M14.1044 7.51917C14.3014 7.51917 14.4637 7.66741 14.4859 7.8584L14.4884 7.90319V14.4316C14.4884 14.6436 14.3165 14.8156 14.1044 14.8156C13.9075 14.8156 13.7452 14.6673 13.723 14.4763L13.7204 14.4316V7.90319C13.7204 7.6911 13.8923 7.51917 14.1044 7.51917Z" fill="#08B89D"/>
<path d="M7.36864 15.0896L7.41349 15.0905L9.48476 15.2498C9.69622 15.2661 9.85446 15.4507 9.8382 15.6621C9.82309 15.8585 9.66283 16.009 9.4707 16.0164L9.42585 16.0156L7.35459 15.8562C7.14312 15.84 6.98488 15.6554 7.00115 15.4439C7.01625 15.2475 7.17651 15.0971 7.36864 15.0896Z" fill="#08B89D"/>
<path d="M9.93369 16.5577C10.1268 16.4699 10.3544 16.5553 10.4422 16.7484C10.5237 16.9277 10.4559 17.1368 10.2912 17.236L10.2515 17.2569L8.4989 18.0535C8.30582 18.1413 8.07815 18.0559 7.99039 17.8629C7.90889 17.6836 7.97669 17.4745 8.14138 17.3752L8.18108 17.3543L9.93369 16.5577Z" fill="#08B89D"/>
<path d="M10.3942 17.9954C10.4972 17.81 10.731 17.7432 10.9164 17.8462C11.0886 17.9419 11.1585 18.1503 11.0851 18.328L11.0656 18.3684L10.269 19.8024C10.166 19.9878 9.93219 20.0546 9.74679 19.9516C9.57463 19.8559 9.50474 19.6475 9.5781 19.4698L9.59759 19.4294L10.3942 17.9954Z" fill="#08B89D"/>
<path d="M16.7477 4C17.3839 4 17.8997 4.5158 17.8997 5.15206V6.67998H13.7572V5.15206C13.7572 4.5158 14.273 4 14.9093 4H16.7477ZM16.7477 4.76804H14.9093C14.7123 4.76804 14.55 4.91629 14.5278 5.10728L14.5252 5.15206L14.525 5.91172H17.1313L17.1317 5.15206C17.1317 4.95512 16.9834 4.79281 16.7925 4.77063L16.7477 4.76804Z" fill="#08B89D"/>
</svg>
