<svg width="24" height="24" viewBox="0 0 24 24" fill="none" xmlns="http://www.w3.org/2000/svg">
<path d="M12.9417 19H11.0582C10.7674 19 10.5059 18.8384 10.3759 18.5782C10.2459 18.318 10.2736 18.0119 10.4482 17.7792L10.7661 17.3558V16.9634C10.2708 16.8411 9.80104 16.6464 9.36324 16.3818L9.08532 16.6596L9.0107 17.1838C8.96971 17.4718 8.77284 17.7078 8.49691 17.7999C8.22101 17.8919 7.92182 17.8213 7.71614 17.6157L6.3843 16.2838C6.17862 16.0782 6.10802 15.779 6.20009 15.5031C6.29213 15.2272 6.52821 15.0303 6.81617 14.9893L7.34032 14.9147L7.61822 14.6368C7.35361 14.199 7.15884 13.7293 7.03656 13.2339H6.64415L6.22076 13.5518C5.98815 13.7264 5.68198 13.7541 5.42183 13.6241C5.16163 13.4941 5 13.2326 5 12.9417V11.0582C5 10.7674 5.16163 10.5059 5.42183 10.3759C5.68209 10.2459 5.98818 10.2736 6.22076 10.4482L6.64415 10.7661H7.03659C7.1589 10.2707 7.35364 9.80102 7.61825 9.36324L7.34035 9.08535L6.8162 9.01073C6.52821 8.96974 6.29216 8.77286 6.20012 8.49694C6.10808 8.22101 6.17865 7.92184 6.38433 7.71616L7.71616 6.38433C7.92182 6.17868 8.22098 6.10805 8.49691 6.20012C8.77284 6.29216 8.96971 6.52824 9.0107 6.8162L9.08532 7.34035L9.36321 7.61825C9.80099 7.35364 10.2707 7.15887 10.7661 7.03659V6.64415L10.4482 6.22076C10.2736 5.98815 10.2459 5.68201 10.3759 5.42183C10.5059 5.16166 10.7674 5 11.0583 5H12.9418C13.2326 5 13.4941 5.16163 13.6241 5.42183C13.7541 5.68204 13.7264 5.98815 13.5518 6.22076L13.2339 6.64415V7.03659C13.7293 7.1589 14.199 7.35364 14.6368 7.61825L14.9147 7.34035L14.9893 6.8162C15.0303 6.52821 15.2271 6.29216 15.5031 6.20012C15.779 6.10808 16.0782 6.17865 16.2838 6.38433L17.6157 7.71616C17.8213 7.92182 17.8919 8.22098 17.7999 8.49691C17.7078 8.77284 17.4718 8.96971 17.1838 9.0107L16.6596 9.08532L16.3818 9.36321C16.6464 9.80099 16.8411 10.2707 16.9634 10.7661H17.3558L17.7792 10.4482C18.0119 10.2736 18.318 10.2459 18.5782 10.3759C18.8384 10.5059 19 10.7673 19 11.0582V12.9417C19 13.2326 18.8384 13.494 18.5782 13.6241C18.318 13.7541 18.0119 13.7263 17.7792 13.5517L17.3558 13.2338H16.9634C16.8411 13.7292 16.6464 14.1989 16.3818 14.6367L16.6596 14.9146L17.1838 14.9892C17.4718 15.0302 17.7078 15.2271 17.7999 15.503C17.8919 15.7789 17.8213 16.0781 17.6157 16.2838L16.2838 17.6156C16.0782 17.8213 15.779 17.8919 15.5031 17.7998C15.2272 17.7078 15.0303 17.4717 14.9893 17.1837L14.9147 16.6596L14.6368 16.3817C14.199 16.6463 13.7293 16.8411 13.2339 16.9634V17.3558L13.5518 17.7792C13.7264 18.0118 13.7541 18.3179 13.6241 18.5781C13.4941 18.8383 13.2326 19 12.9417 19ZM11.1734 18.1797H12.8266L12.5663 17.833C12.4678 17.7018 12.4136 17.5392 12.4136 17.375V16.6311C12.4136 16.4321 12.5564 16.2618 12.7524 16.2272C13.3684 16.1184 13.9419 15.8807 14.4568 15.5206C14.6198 15.4066 14.8412 15.426 14.9818 15.5667L15.5083 16.0931C15.6243 16.2092 15.7009 16.3626 15.7241 16.525L15.7852 16.9542L16.9542 15.7852L16.525 15.7241C16.3626 15.7009 16.2092 15.6243 16.0932 15.5083L15.5667 14.9818C15.426 14.8412 15.4066 14.6198 15.5206 14.4568C15.8807 13.9419 16.1184 13.3685 16.2272 12.7524C16.2618 12.5564 16.4321 12.4135 16.6311 12.4135H17.375C17.5391 12.4135 17.7018 12.4678 17.833 12.5663L18.1797 12.8266V11.1734L17.833 11.4337C17.7018 11.5322 17.5392 11.5864 17.375 11.5864H16.6311C16.4321 11.5864 16.2618 11.4436 16.2272 11.2476C16.1184 10.6315 15.8807 10.0581 15.5206 9.54319C15.4066 9.38017 15.4261 9.15879 15.5667 9.01814L16.0932 8.49171C16.2092 8.37567 16.3626 8.29905 16.525 8.27592L16.9542 8.21483L15.7852 7.0458L15.7241 7.47496C15.7009 7.63744 15.6243 7.79081 15.5083 7.90683L14.9818 8.43328C14.8411 8.57394 14.6198 8.59338 14.4568 8.47938C13.9419 8.11935 13.3685 7.88162 12.7524 7.77279C12.5564 7.73815 12.4136 7.56788 12.4136 7.3689V6.62496C12.4136 6.46084 12.4679 6.29817 12.5664 6.16695L12.8266 5.82031H11.1734L11.4337 6.167C11.5322 6.2982 11.5864 6.46084 11.5864 6.62498V7.3689C11.5864 7.56788 11.4436 7.73818 11.2476 7.77279C10.6315 7.88162 10.0581 8.11938 9.54325 8.47938C9.38022 8.59341 9.15885 8.57396 9.01816 8.43328L8.49171 7.90686C8.37567 7.79081 8.29905 7.63744 8.27592 7.47496L8.21483 7.0458L7.0458 8.21483L7.47496 8.27592C7.63744 8.29905 7.79081 8.37567 7.90683 8.49171L8.43325 9.01814C8.57394 9.15882 8.59338 9.38017 8.47938 9.54319C8.11935 10.0581 7.88162 10.6315 7.77279 11.2476C7.73818 11.4436 7.56788 11.5864 7.3689 11.5864H6.62496C6.46084 11.5864 6.29817 11.5321 6.16695 11.4336L5.82031 11.1734V12.8266L6.167 12.5663C6.2982 12.4678 6.46084 12.4136 6.62498 12.4136H7.3689C7.56791 12.4136 7.73818 12.5564 7.77279 12.7524C7.88162 13.3685 8.11935 13.9419 8.47938 14.4568C8.59341 14.6198 8.57396 14.8412 8.43328 14.9819L7.90686 15.5083C7.79081 15.6244 7.63744 15.701 7.47496 15.7241L7.0458 15.7852L8.21483 16.9542L8.27592 16.5251C8.29905 16.3626 8.37567 16.2092 8.49171 16.0932L9.01816 15.5667C9.15882 15.4261 9.38017 15.4066 9.54322 15.5206C10.0581 15.8807 10.6316 16.1184 11.2476 16.2272C11.4436 16.2619 11.5864 16.4321 11.5864 16.6311V17.375C11.5864 17.5392 11.5321 17.7018 11.4336 17.8331L11.1734 18.1797Z" fill="#08B89D"/>
<path d="M10.626 12.2718C9.71851 12.2718 8.98022 11.5335 8.98022 10.626C8.98022 9.71851 9.71851 8.98022 10.626 8.98022C11.5335 8.98022 12.2718 9.71851 12.2718 10.626C12.2718 11.5335 11.5335 12.2718 10.626 12.2718ZM10.626 9.80054C10.1708 9.80054 9.80054 10.1708 9.80054 10.626C9.80054 11.0812 10.1708 11.4515 10.626 11.4515C11.0812 11.4515 11.4514 11.0812 11.4514 10.626C11.4514 10.1708 11.0812 9.80054 10.626 9.80054Z" fill="#08B89D"/>
<path d="M13.6475 14.8813C12.9671 14.8813 12.4136 14.3278 12.4136 13.6475C12.4136 12.9671 12.9671 12.4136 13.6475 12.4136C14.3278 12.4136 14.8813 12.9671 14.8813 13.6475C14.8813 14.3278 14.3278 14.8813 13.6475 14.8813ZM13.6475 13.2339C13.4194 13.2339 13.2339 13.4194 13.2339 13.6475C13.2339 13.8755 13.4194 14.061 13.6475 14.061C13.8755 14.061 14.061 13.8755 14.061 13.6475C14.061 13.4194 13.8755 13.2339 13.6475 13.2339Z" fill="#08B89D"/>
<path d="M10.4414 14.6523C10.656 14.6523 10.8615 14.4637 10.8516 14.2422C10.8417 14.02 10.6714 13.832 10.4414 13.832C10.2269 13.832 10.0214 14.0207 10.0313 14.2422C10.0412 14.4644 10.2115 14.6523 10.4414 14.6523Z" fill="#08B89D"/>
<path d="M14.5977 11.8906C14.8122 11.8906 15.0178 11.702 15.0079 11.4805C14.9979 11.2582 14.8276 11.0703 14.5977 11.0703C14.3832 11.0703 14.1776 11.259 14.1875 11.4805C14.1975 11.7027 14.3678 11.8906 14.5977 11.8906Z" fill="#08B89D"/>
<path d="M13.2852 9.94922C13.4997 9.94922 13.7053 9.76057 13.6954 9.53906C13.6854 9.31684 13.5151 9.12891 13.2852 9.12891C13.0707 9.12891 12.8651 9.31755 12.875 9.53906C12.885 9.76129 13.0553 9.94922 13.2852 9.94922Z" fill="#08B89D"/>
</svg>
