<svg width="24" height="24" viewBox="0 0 24 24" fill="none" xmlns="http://www.w3.org/2000/svg">
<path d="M7.75 15.2026V17.1562H6.34375C6.08466 17.1562 5.875 17.3659 5.875 17.625C5.875 17.8841 6.08466 18.0938 6.34375 18.0938H7.75V19.5312C7.75 19.7903 7.95966 20 8.21875 20C8.47784 20 8.6875 19.7903 8.6875 19.5312V18.0938H10.0938C10.3528 18.0938 10.5625 17.8841 10.5625 17.625C10.5625 17.3659 10.3528 17.1562 10.0938 17.1562H8.6875V15.2045C9.00634 15.1636 9.31772 15.0989 9.61294 14.9946C9.34387 14.7707 9.09978 14.5186 8.88097 14.2452C8.66697 14.2892 8.44556 14.3125 8.21875 14.3125C6.40966 14.3125 4.9375 12.8403 4.9375 11.0312C4.9375 9.22216 6.40966 7.75 8.21875 7.75C10.0884 7.75 11.5 9.34472 11.5 11.0312C11.5 11.5742 11.3547 12.0791 11.1202 12.5307C11.3251 12.7744 11.5756 12.9744 11.8627 13.1187C12.2183 12.5005 12.4375 11.7942 12.4375 11.0312C12.4375 8.857 10.6494 6.8125 8.21875 6.8125C5.89241 6.8125 4 8.70491 4 11.0312C4 13.1971 5.64641 14.966 7.75 15.2026Z" fill="#08B89D"/>
<path d="M19.5312 4H16.7188C16.4597 4 16.25 4.20966 16.25 4.46875C16.25 4.72784 16.4597 4.9375 16.7188 4.9375H18.3997L15.5249 7.74978C14.8031 7.17241 13.9004 6.8125 12.9062 6.8125C12.4153 6.8125 11.9507 6.91297 11.5121 7.06787C11.7811 7.29184 12.0252 7.54391 12.244 7.81734C12.458 7.77328 12.6794 7.75 12.9062 7.75C14.7153 7.75 16.1875 9.22216 16.1875 11.0312C16.1875 12.8403 14.7153 14.3125 12.9062 14.3125C11.0493 14.3125 9.625 12.7353 9.625 11.0312C9.625 10.4883 9.77028 9.98337 10.0048 9.53178C9.79994 9.28809 9.54938 9.08809 9.26234 8.94384C8.90672 9.562 8.6875 10.2683 8.6875 11.0312C8.6875 13.2267 10.5237 15.25 12.9062 15.25C15.2326 15.25 17.125 13.3576 17.125 11.0312C17.125 10.0371 16.7651 9.13441 16.1877 8.41262L19.0625 5.60034V7.28125C19.0625 7.54034 19.2722 7.75 19.5312 7.75C19.7903 7.75 20 7.54034 20 7.28125V4.46875C20 4.21228 19.7898 4 19.5312 4V4Z" fill="#08B89D"/>
</svg>
