<svg width="24" height="24" viewBox="0 0 24 24" fill="none" xmlns="http://www.w3.org/2000/svg">
<path d="M14.5789 5C16.5 5 18.0629 6.56297 18.0629 8.48402C18.0629 9.18193 17.8609 9.84682 17.4751 10.421L17.4627 10.4795L17.4912 10.6568C17.6381 11.6629 17.5319 12.6926 17.1716 13.6489L17.1518 13.7016L17.1947 13.7381L17.2757 13.8101C17.7779 14.2767 18.0689 14.9354 18.0689 15.6244C18.0689 16.9885 16.9589 18.0983 15.5947 18.0983C14.8622 18.0983 14.1662 17.7709 13.6969 17.2108L13.6607 17.1677L13.4524 17.2419C12.1511 17.6801 10.7188 17.6586 9.43076 17.178L9.37835 17.1585L9.342 17.201L9.26599 17.2859C8.79999 17.7833 8.15689 18.0629 7.46825 18.0629C6.10731 18.0629 5 16.9556 5 15.5947C5 14.8679 5.31147 14.1919 5.86194 13.721L5.90445 13.6847L5.83079 13.481C5.34547 12.0643 5.41118 10.5109 6.00024 9.14436L6.02638 9.08372L5.97179 9.04656L5.89092 8.98882C5.33523 8.57294 5 7.91492 5 7.21415C5 5.99331 5.99331 5 7.21415 5C7.94829 5 8.63551 5.36792 9.04656 5.97179L9.08371 6.02638L9.14435 6.00024L9.30699 5.93295C10.3423 5.52223 11.4753 5.40521 12.5834 5.60024L12.6419 5.58786L12.758 5.51315C13.305 5.176 13.9276 5 14.5789 5ZM16.7617 14.5231L16.7031 14.621L16.6094 14.7727C16.0979 15.5737 15.4039 16.2433 14.5834 16.7257L14.485 16.7835L14.5729 16.8563L14.6461 16.9134C14.9199 17.1147 15.252 17.2253 15.5947 17.2253C16.4776 17.2253 17.1958 16.5072 17.1958 15.6244C17.1958 15.255 17.0667 14.897 16.8338 14.6115L16.7617 14.5231ZM7.46825 13.9997C6.59026 13.9997 5.87308 14.7093 5.87308 15.5947C5.87308 16.4744 6.58856 17.1899 7.46825 17.1899C8.35265 17.1899 9.06322 16.4739 9.06322 15.5947C9.06322 14.7152 8.34775 13.9997 7.46825 13.9997ZM11.5294 6.38127L11.4163 6.38244C7.95838 6.45509 5.53342 9.88473 6.65123 13.1823L6.6761 13.2556L6.75021 13.2331L6.83699 13.2084C8.68611 12.7167 10.3938 14.4536 9.82968 16.3127L9.80719 16.3868L9.98807 16.4469C13.3223 17.4988 16.7564 14.964 16.6804 11.4198L16.6772 11.2712L16.555 11.3557L16.4381 11.433C15.8861 11.7822 15.2456 11.968 14.5789 11.968C12.6579 11.968 11.095 10.4051 11.095 8.48402C11.095 7.76968 11.3083 7.08527 11.7073 6.50797L11.7919 6.38568L11.6432 6.3825L11.5294 6.38127ZM14.5789 5.87308C13.141 5.87308 11.9679 7.03565 11.9679 8.48402C11.9679 9.92378 13.1392 11.095 14.5789 11.095C16.0276 11.095 17.1899 9.92174 17.1899 8.48402C17.1899 7.04425 16.0187 5.87308 14.5789 5.87308ZM7.21415 5.87308C6.47454 5.87308 5.87308 6.47454 5.87308 7.21415C5.87308 7.61925 6.05775 8.0021 6.37002 8.25608L6.43895 8.31214L6.4875 8.23774L6.5874 8.08949C7.02935 7.45415 7.58821 6.9114 8.23774 6.4875L8.31214 6.43894L8.25608 6.37002L8.2036 6.30928C7.95094 6.03393 7.59231 5.87308 7.21415 5.87308Z" fill="#08B89D"/>
</svg>
