<svg width="24" height="24" viewBox="0 0 24 24" fill="none" xmlns="http://www.w3.org/2000/svg">
<path d="M12.9391 4.46214C13.231 4.84057 13.2659 5.35429 13.032 5.77104L12.985 5.84798C12.9572 5.88577 12.942 5.93137 12.9416 5.97095L12.9481 6.08046L12.9824 6.47441L13.0661 7.26685L13.1613 7.28847L13.2574 7.31362L13.3529 7.34076L13.4463 7.37043L13.5595 7.22328C13.6721 7.07345 13.7811 6.92254 13.885 6.7737L14.0366 6.55239L14.1793 6.33655C14.2121 6.27756 14.2261 6.21002 14.2191 6.13404C14.2119 5.9137 14.267 5.69581 14.3779 5.50575C14.6319 5.0671 15.1365 4.8382 15.6339 4.93595C16.1313 5.03369 16.5117 5.43652 16.5809 5.93868C16.6462 6.41294 16.4203 6.87695 16.0071 7.12273L15.9322 7.1638C15.8875 7.18294 15.85 7.21588 15.8289 7.25135C15.666 7.56525 15.4904 7.93506 15.327 8.32415L15.2826 8.43083L15.355 8.49661L15.426 8.56522L15.4955 8.63529L15.5615 8.70599L15.9868 8.52201L16.3785 8.3467L16.612 8.23812L16.7193 8.18551C16.7758 8.15142 16.8207 8.101 16.8519 8.03324C16.9565 7.83627 17.1152 7.67325 17.3085 7.56376C17.6113 7.38969 17.9754 7.35766 18.304 7.47619C18.6325 7.59472 18.8923 7.8518 19.0142 8.1789C19.1881 8.6435 19.0532 9.16727 18.6771 9.48965C18.4669 9.6717 18.2006 9.77408 17.9185 9.7804L17.8239 9.77893C17.774 9.77332 17.7236 9.78343 17.6875 9.8032C17.3959 9.9916 17.0909 10.2024 16.7851 10.4323L16.6312 10.5498L16.6616 10.6472L16.6884 10.7443L16.7131 10.8419L16.7347 10.9401L16.9169 10.9644C17.1017 10.9868 17.2857 11.0056 17.4659 11.0211L17.7332 11.0418L17.9929 11.0577C18.0609 11.0561 18.1269 11.0343 18.1888 10.991C18.3759 10.8739 18.5923 10.8121 18.8129 10.8126C19.3198 10.8134 19.7703 11.136 19.9343 11.6158C20.0982 12.0955 19.9393 12.6264 19.5389 12.9372C19.1384 13.248 18.5847 13.2702 18.1529 12.987C18.1145 12.9579 18.0677 12.942 18.0266 12.9416C17.6784 12.9577 17.2871 12.9889 16.8829 13.039L16.7343 13.0586L16.7133 13.1563L16.689 13.2535L16.6626 13.3501L16.6325 13.447L16.7624 13.5487C16.9014 13.6547 17.0468 13.7608 17.1978 13.8665L17.4283 14.0246L17.6665 14.1818C17.7061 14.2048 17.7505 14.2181 17.7988 14.2206L17.8484 14.2195C18.0738 14.209 18.2975 14.2637 18.492 14.3766C18.7992 14.5527 19.0118 14.8568 19.0716 15.2058C19.1314 15.5549 19.0323 15.9124 18.801 16.181C18.5414 16.481 18.1496 16.6321 17.7558 16.584C17.3902 16.5393 17.0675 16.3284 16.8761 16.0085L16.8344 15.9327C16.8151 15.8875 16.7818 15.8496 16.745 15.828L16.6627 15.7864L16.4247 15.6736L16.0991 15.5256L15.6979 15.3481L15.5624 15.289L15.4967 15.3605L15.4269 15.4311L15.3557 15.5003L15.2831 15.566L15.3545 15.7378C15.4281 15.9101 15.5043 16.0798 15.5814 16.2441L15.6973 16.4863L15.8132 16.7186C15.848 16.7767 15.8996 16.8227 15.9692 16.8546C16.1641 16.9587 16.3255 17.1158 16.4344 17.307C16.6094 17.6098 16.642 17.9744 16.5235 18.3035C16.4049 18.6325 16.1472 18.8926 15.8195 19.014C15.6891 19.0627 15.551 19.0875 15.4124 19.0872C15.0851 19.0881 14.7719 18.9542 14.5464 18.717C14.3209 18.4798 14.2031 18.1602 14.2213 17.8242C14.2271 17.7759 14.2174 17.727 14.1974 17.6912C14.0051 17.3906 13.7742 17.0558 13.5196 16.7205L13.449 16.6287L13.3527 16.6598L13.2559 16.6874L13.1586 16.7129L13.0587 16.7355L13.0352 16.9179C13.0127 17.102 12.994 17.2853 12.9786 17.4658L12.9579 17.7343L12.942 17.9974C12.9424 18.0609 12.9624 18.1228 13.0034 18.1807C13.1236 18.3698 13.187 18.5894 13.1862 18.8127C13.1869 19.1278 13.0621 19.4302 12.8392 19.653C12.6164 19.8758 12.314 20.0007 11.9999 20C11.9336 20.0003 11.8674 19.9952 11.8 19.9845C11.4049 19.916 11.0709 19.6532 10.9114 19.2853C10.7642 18.9457 10.784 18.5587 10.9641 18.2331L11.0125 18.1531C11.0409 18.1141 11.0564 18.0672 11.0569 18.0264L11.0452 17.8489L11.0155 17.5172L10.9607 16.9898L10.9319 16.7318L10.8372 16.7105L10.7411 16.6853L10.6455 16.6582L10.5518 16.6282L10.4389 16.7758C10.3263 16.9258 10.2172 17.0769 10.1133 17.2258L9.96168 17.4471L9.81917 17.6626C9.78642 17.7216 9.77236 17.7891 9.77944 17.8657C9.78839 18.1861 9.66764 18.4964 9.44456 18.7265C9.22148 18.9566 8.91496 19.0868 8.59376 19.0877C8.31695 19.0871 8.04893 18.9905 7.83458 18.8139C7.52753 18.5574 7.36983 18.1639 7.41479 17.7664C7.45654 17.3973 7.66786 17.0706 7.99017 16.8774L8.0665 16.8352C8.11115 16.8162 8.14852 16.7834 8.16961 16.7478C8.33253 16.4339 8.50811 16.0641 8.67151 15.675L8.71539 15.5678L8.64324 15.5025L8.57211 15.4339L8.5024 15.3638L8.43561 15.2922L8.04287 15.4627L7.67462 15.6269L7.38049 15.7631L7.27816 15.8134C7.22161 15.8474 7.17671 15.8979 7.14563 15.9656C7.04099 16.1627 6.88211 16.3258 6.68881 16.435C6.38608 16.6095 6.02183 16.6418 5.69313 16.5232C5.36444 16.4046 5.10471 16.1472 4.9833 15.82C4.80939 15.3554 4.94424 14.8316 5.32065 14.509C5.53116 14.3277 5.79723 14.2256 6.07885 14.2188L6.17325 14.2201C6.22375 14.2256 6.27472 14.2153 6.31104 14.1956C6.60339 14.0069 6.90797 13.7965 7.21369 13.5666L7.36735 13.4484L7.33723 13.3517L7.31043 13.2547L7.28572 13.1572L7.26376 13.0586L7.08109 13.0348C6.89575 13.0123 6.71124 12.9935 6.53069 12.978L6.2632 12.9573L6.00398 12.9415C5.93692 12.9423 5.87173 12.9637 5.80968 13.0082C5.62256 13.1252 5.40621 13.187 5.18566 13.1865C4.67859 13.1859 4.22788 12.8633 4.06387 12.3835C3.89986 11.9037 4.05877 11.3726 4.45939 11.0618C4.83644 10.7692 5.34922 10.7325 5.76775 10.9652L5.84507 11.012C5.88393 11.0412 5.93109 11.0571 5.97175 11.0578C6.32348 11.0412 6.71354 11.0101 7.11628 10.9602L7.26376 10.9401L7.2849 10.8431L7.30917 10.746L7.33549 10.6494L7.36504 10.5526L7.16911 10.4006C7.04778 10.3091 6.92506 10.2198 6.80122 10.1327L6.61464 10.0039L6.332 9.81749C6.29228 9.7945 6.24792 9.78122 6.19963 9.77864L6.15006 9.77966C5.92487 9.78969 5.70151 9.73509 5.50626 9.62225C5.06701 9.36803 4.8377 8.8629 4.93547 8.36489C5.03324 7.86688 5.43651 7.48594 5.93927 7.41667C6.41411 7.35124 6.87868 7.57744 7.12485 7.99142L7.16599 8.0664C7.1852 8.11166 7.21853 8.1495 7.25531 8.17114L7.41544 8.25051L7.80747 8.43153L8.30878 8.65376L8.43746 8.70969L8.50381 8.63869L8.57352 8.56811L8.64468 8.49899L8.71724 8.43268L8.64604 8.26182C8.5726 8.08972 8.49649 7.92026 8.41942 7.75589L8.30332 7.51344L8.18707 7.28045C8.1524 7.22252 8.10085 7.17658 8.03124 7.14479C7.83621 7.0409 7.67459 6.88392 7.56531 6.69242C7.31256 6.25308 7.36668 5.70172 7.70002 5.31991C8.03337 4.93809 8.57238 4.81008 9.04181 5.00123C9.48516 5.18177 9.77403 5.60937 9.78033 6.09022L9.77848 6.17559C9.77264 6.22373 9.78228 6.27248 9.8019 6.30789C9.99403 6.60813 10.2152 6.92974 10.4595 7.25245L10.5499 7.36951L10.6431 7.34017L10.7383 7.31296L10.8339 7.28776L10.9287 7.26592L10.9935 6.69655L11.0416 6.20445L11.0565 6.00247C11.0562 5.95442 11.0448 5.90731 11.0216 5.86207L10.9945 5.81749C10.8748 5.62855 10.8116 5.40934 10.8123 5.18601C10.8127 4.67823 11.1361 4.22697 11.6168 4.06337C12.0975 3.89977 12.629 4.06006 12.9391 4.46214ZM11.8759 4.82297C11.7198 4.8757 11.6145 5.02186 11.6139 5.18707C11.6134 5.2583 11.6333 5.32818 11.6685 5.38436C11.7982 5.57527 11.8645 5.8022 11.8577 6.03602L11.8545 6.09014L11.8389 6.29416L11.8051 6.65165L11.732 7.33016C11.7273 7.37155 11.7226 7.41345 11.7178 7.45581C11.6868 7.72249 11.4986 7.94195 11.2458 8.01553L11.1864 8.02987C10.3272 8.20542 9.54847 8.65545 8.96811 9.31133C8.77918 9.52822 8.47193 9.5985 8.20683 9.48504L7.75439 9.28686L7.27675 9.07188L7.05191 8.96643L6.88357 8.88279C6.68989 8.77882 6.53522 8.61477 6.44516 8.42016C6.37045 8.27404 6.21141 8.19127 6.04887 8.21391C5.88634 8.23655 5.75597 8.35963 5.72403 8.5206C5.69209 8.68157 5.76559 8.8451 5.90725 8.92813C5.96937 8.96458 6.0408 8.98206 6.10947 8.9786C6.33777 8.96158 6.56555 9.01787 6.76142 9.1404C7.18437 9.41392 7.58014 9.69527 7.93874 9.97784C8.15888 10.1534 8.24466 10.4486 8.15339 10.7135C7.87481 11.5487 7.87481 12.4517 8.15299 13.2857C8.24443 13.5519 8.15851 13.8467 7.93753 14.0228C7.53299 14.3398 7.1246 14.6261 6.74136 14.8725C6.55452 14.9872 6.33586 15.039 6.12274 15.0208C6.02071 15.016 5.92078 15.0508 5.84336 15.1182C5.69237 15.2487 5.66597 15.4728 5.78253 15.6348C5.89909 15.7968 6.12004 15.843 6.29425 15.7399C6.35682 15.7045 6.408 15.6521 6.43969 15.5928C6.54058 15.3872 6.7024 15.2178 6.90718 15.1054L7.01769 15.051L7.32796 14.9065L7.7686 14.7088L8.2077 14.5159C8.29034 14.4801 8.37944 14.4615 8.47005 14.4615C8.66163 14.462 8.84378 14.5447 8.97004 14.6883C9.51668 15.3064 10.2386 15.7413 11.0365 15.9363L11.187 15.97C11.4701 16.0248 11.6853 16.2564 11.7194 16.5434L11.7853 17.1441L11.8259 17.5532L11.8474 17.8026L11.8596 17.9918C11.8656 18.2092 11.8018 18.4227 11.6796 18.5982C11.5739 18.7585 11.6019 18.9719 11.7451 19.0996C11.8884 19.2274 12.1037 19.2306 12.2497 19.1082C12.3358 19.0346 12.3851 18.9269 12.3846 18.8122C12.385 18.7406 12.3649 18.6705 12.329 18.6138C12.1993 18.4231 12.1333 18.1964 12.1406 17.9631C12.1676 17.4409 12.2196 16.8863 12.3036 16.3436C12.3275 16.1681 12.463 16.0288 12.6386 16.0001C13.5642 15.8543 14.4099 15.39 15.0292 14.6882C15.2184 14.4705 15.5266 14.4002 15.7919 14.5143L16.2635 14.721L16.5432 14.8461L16.8022 14.9647L17.0097 15.0635L17.1148 15.1165C17.3086 15.2203 17.4634 15.3844 17.5533 15.579C17.6281 15.7251 17.7871 15.8079 17.9496 15.7852C18.1122 15.7626 18.2425 15.6395 18.2745 15.4785C18.3064 15.3176 18.2329 15.154 18.0908 15.0707C18.0291 15.0342 17.9579 15.0168 17.8884 15.0206C17.6605 15.0365 17.4334 14.98 17.2376 14.858C16.8177 14.5865 16.4217 14.3052 16.0592 14.0207C15.8395 13.8454 15.7537 13.551 15.8443 13.2861C16.1231 12.4507 16.1231 11.5474 15.8448 10.7132C15.7532 10.447 15.8391 10.1519 16.0602 9.97579C16.4635 9.65965 16.8708 9.37422 17.2559 9.12646C17.4428 9.01128 17.6619 8.95948 17.8749 8.97837C17.9773 8.98312 18.0775 8.9483 18.1544 8.88164C18.3036 8.75076 18.329 8.52799 18.2131 8.36689C18.0972 8.20579 17.8779 8.15904 17.7049 8.25972C17.6423 8.29513 17.5911 8.34762 17.5593 8.40685C17.4585 8.61241 17.2966 8.78187 17.0919 8.89427L16.9241 8.97596L16.6152 9.11867L15.9044 9.43441C15.8669 9.4508 15.829 9.46733 15.7909 9.48397C15.5262 9.59751 15.2185 9.52755 15.0295 9.31134C14.4488 8.65479 13.6702 8.20493 12.8128 8.0299C12.5294 7.97515 12.314 7.74325 12.2802 7.45595L12.2137 6.84876L12.1652 6.35198L12.1428 6.06123C12.1417 6.0416 12.1407 6.02319 12.1399 6.00606C12.1338 5.78921 12.1978 5.57616 12.3203 5.4013C12.4114 5.26403 12.4052 5.08398 12.3048 4.9533C12.2044 4.82262 12.0321 4.77024 11.8759 4.82297ZM14.6283 16.0784L14.6009 16.0972C14.4865 16.1704 14.369 16.2388 14.2488 16.3021L14.2181 16.317L14.2579 16.3702C14.4421 16.6185 14.6123 16.8633 14.7625 17.0913L14.8713 17.2589C14.9869 17.4449 15.0391 17.6634 15.0204 17.8774C15.0111 18.0418 15.1072 18.1939 15.2596 18.2561C15.4121 18.3182 15.5872 18.2767 15.6954 18.1527C15.8037 18.0287 15.8212 17.8496 15.7386 17.7061C15.7039 17.6448 15.6524 17.5946 15.5944 17.5636C15.3865 17.4617 15.2154 17.2978 15.1028 17.0911C14.9557 16.8023 14.8073 16.4903 14.6665 16.1674L14.6283 16.0784ZM9.37068 16.0784L9.34625 16.136C9.19416 16.4857 9.03443 16.819 8.88052 17.1155C8.77723 17.3088 8.61394 17.4634 8.41945 17.5539C8.27289 17.6282 8.18961 17.7873 8.21202 17.9501C8.23444 18.1129 8.35762 18.2436 8.51882 18.2755C8.68001 18.3075 8.84375 18.2338 8.92673 18.0916C8.96253 18.0306 8.9803 17.9606 8.97823 17.8947C8.96252 17.6638 9.019 17.4338 9.14198 17.233C9.31581 16.9667 9.49638 16.7036 9.68785 16.4424L9.78226 16.3161L9.75164 16.3012C9.6313 16.2383 9.51365 16.1704 9.39899 16.0976L9.37068 16.0784ZM12.2613 12.1229C13.2063 12.1229 13.9724 12.889 13.9724 13.8339C13.9724 14.7789 13.2063 15.545 12.2613 15.545C11.3163 15.545 10.5502 14.7789 10.5502 13.8338C10.5512 12.9197 11.2681 12.1734 12.1703 12.1253L12.2613 12.1229ZM12.2613 12.9245C11.759 12.9245 11.3518 13.3317 11.3518 13.8339C11.3518 14.3362 11.759 14.7434 12.2613 14.7434C12.7636 14.7434 13.1708 14.3362 13.1708 13.8339C13.1708 13.3317 12.7636 12.9245 12.2613 12.9245ZM9.11664 11.5988C9.62745 11.5988 10.0415 12.0129 10.0415 12.5237C10.0415 13.0345 9.62745 13.4486 9.11664 13.4486C8.60584 13.4486 8.19174 13.0345 8.19174 12.5237C8.19174 12.0129 8.60584 11.5988 9.11664 11.5988ZM9.11664 12.4004C9.04854 12.4004 8.99333 12.4556 8.99333 12.5237C8.99333 12.5918 9.04854 12.647 9.11664 12.647C9.18475 12.647 9.23996 12.5918 9.23996 12.5237C9.23996 12.4556 9.18475 12.4004 9.11664 12.4004ZM18.7111 11.6302L18.6586 11.6476L18.608 11.6727L18.5417 11.7136C18.3663 11.813 18.1662 11.863 17.9606 11.8574C17.6355 11.8404 17.292 11.8131 16.9435 11.7738L16.848 11.7619L16.8528 11.8643L16.8547 11.9996L16.8528 12.133L16.848 12.2363L16.8805 12.2323C17.2105 12.1936 17.5297 12.1668 17.8192 12.1503L17.9891 12.1415C18.2076 12.135 18.4224 12.1988 18.6007 12.3226C18.7608 12.4312 18.9767 12.4041 19.1051 12.2595C19.2336 12.1148 19.2348 11.8973 19.109 11.7522C19.0078 11.638 18.8532 11.5939 18.7111 11.6302ZM5.03334 11.6466C4.94277 11.6856 4.87111 11.7572 4.833 11.8413L4.81681 11.8843L4.80495 11.9324C4.78517 12.0462 4.81682 12.1628 4.88925 12.2479C5.01587 12.3901 5.22526 12.423 5.3825 12.3308C5.57462 12.2022 5.80176 12.1361 6.0369 12.1417C6.36194 12.1587 6.70547 12.186 7.054 12.2254L7.14861 12.2368L7.14468 12.1332L7.14274 11.9996L7.14463 11.8653L7.14861 11.7628L7.04375 11.7756C6.77302 11.8061 6.50771 11.8288 6.25581 11.8444L6.00867 11.8576C5.78989 11.8646 5.57471 11.8007 5.3989 11.6779C5.28996 11.607 5.15276 11.5952 5.03334 11.6466ZM14.0957 10.2885C14.6065 10.2885 15.0206 10.7026 15.0206 11.2134C15.0206 11.7242 14.6065 12.1383 14.0957 12.1383C13.5849 12.1383 13.1708 11.7242 13.1708 11.2134C13.1708 10.7026 13.5849 10.2885 14.0957 10.2885ZM11.2131 8.97822C12.0134 8.97822 12.6621 9.62696 12.6621 10.4272C12.6621 11.2275 12.0134 11.8762 11.2129 11.8762C10.4131 11.8753 9.76503 11.2272 9.76408 10.4272C9.76408 9.62696 10.4128 8.97822 11.2131 8.97822ZM14.0957 11.0901C14.0276 11.0901 13.9724 11.1453 13.9724 11.2134C13.9724 11.2815 14.0276 11.3367 14.0957 11.3367C14.1638 11.3367 14.219 11.2815 14.219 11.2134C14.219 11.1453 14.1638 11.0901 14.0957 11.0901ZM11.2131 9.7798C10.8555 9.7798 10.5657 10.0697 10.5657 10.4272C10.5657 10.7848 10.8555 11.0747 11.2131 11.0747C11.5707 11.0747 11.8605 10.7848 11.8605 10.4272C11.8605 10.0697 11.5707 9.7798 11.2131 9.7798ZM8.30344 5.84627C8.19496 5.97025 8.17727 6.14947 8.25977 6.29286C8.29474 6.35433 8.34639 6.40466 8.40435 6.43575C8.61217 6.53755 8.78324 6.7014 8.89562 6.90793C9.04225 7.19529 9.19099 7.508 9.33183 7.83172L9.3693 7.92121L9.39786 7.90269C9.51242 7.82973 9.62999 7.7616 9.75026 7.69849L9.78042 7.68305L9.71702 7.59845C9.55535 7.37952 9.40327 7.1615 9.26321 6.95029L9.12723 6.74156C9.01162 6.55561 8.95941 6.33718 8.97815 6.12288C8.98791 5.95843 8.89206 5.80597 8.73964 5.74348C8.58721 5.68099 8.41192 5.7223 8.30344 5.84627ZM15.1024 5.86255L15.0719 5.90728C15.036 5.96856 15.0182 6.03852 15.0203 6.10439C15.036 6.33529 14.9795 6.56537 14.8565 6.76616C14.684 7.03045 14.5033 7.29406 14.312 7.55581L14.2172 7.68259L14.2484 7.69789C14.3688 7.76082 14.4864 7.82877 14.6011 7.90154L14.6292 7.91983L14.6712 7.82207C14.7804 7.57178 14.8936 7.33023 15.0061 7.10417L15.1183 6.88353C15.2216 6.69041 15.3847 6.53596 15.5791 6.44527C15.7256 6.37092 15.8089 6.21182 15.7865 6.04902C15.7641 5.88622 15.6409 5.75555 15.4797 5.72357C15.3364 5.69515 15.1911 5.75028 15.1024 5.86255Z" fill="#08B89D"/>
</svg>
