<svg width="24" height="24" viewBox="0 0 24 24" fill="none" xmlns="http://www.w3.org/2000/svg">
<path d="M13.0909 4H9.90909C9.15598 4 8.54545 4.61052 8.54545 5.36364V8.09091C8.54545 8.34195 8.34195 8.54545 8.09091 8.54545H5.36364C4.61052 8.54545 4 9.15598 4 9.90909V13.0909C4 13.844 4.61052 14.4545 5.36364 14.4545H8.09091C8.34195 14.4545 8.54545 14.6581 8.54545 14.9091V17.6364C8.54545 18.3895 9.15598 19 9.90909 19H13.0909C13.844 19 14.4545 18.3895 14.4545 17.6364V14.9091C14.4545 14.6581 14.6581 14.4545 14.9091 14.4545H17.6364C18.3895 14.4545 19 13.844 19 13.0909V9.90909C19 9.15598 18.3895 8.54545 17.6364 8.54545H14.9091C14.6581 8.54545 14.4545 8.34195 14.4545 8.09091V5.36364C14.4545 4.61052 13.844 4 13.0909 4ZM9.90909 4.90909H13.0909C13.3419 4.90909 13.5455 5.1126 13.5455 5.36364V8.09091C13.5455 8.84402 14.156 9.45455 14.9091 9.45455H17.6364C17.8874 9.45455 18.0909 9.65805 18.0909 9.90909V13.0909C18.0909 13.3419 17.8874 13.5455 17.6364 13.5455H14.9091C14.156 13.5455 13.5455 14.156 13.5455 14.9091V17.6364C13.5455 17.8874 13.3419 18.0909 13.0909 18.0909H9.90909C9.65805 18.0909 9.45455 17.8874 9.45455 17.6364V14.9091C9.45455 14.156 8.84402 13.5455 8.09091 13.5455H5.36364C5.1126 13.5455 4.90909 13.3419 4.90909 13.0909V9.90909C4.90909 9.65805 5.1126 9.45455 5.36364 9.45455H8.09091C8.84402 9.45455 9.45455 8.84402 9.45455 8.09091V5.36364C9.45455 5.1126 9.65805 4.90909 9.90909 4.90909Z" fill="#08B89D"/>
</svg>
