<svg width="24" height="24" viewBox="0 0 24 24" fill="none" xmlns="http://www.w3.org/2000/svg">
<path d="M20 8.92641C20 10.8306 19.2107 11.6018 17.8917 12.1849L17.6949 12.269L17.4907 12.3511L17.2794 12.4318L16.8357 12.5918L15.8701 12.9242L15.4828 13.06L15.2176 13.1556L14.9468 13.2562L14.6707 13.3622L14.3895 13.4745L14.1034 13.5936C14.0553 13.6141 14.007 13.6349 13.9586 13.656L13.6654 13.7866C13.6161 13.8091 13.5667 13.8319 13.5171 13.8551L13.2172 13.9988C13.1669 14.0235 13.1164 14.0486 13.0657 14.0741C11.6912 14.7662 10.939 15.4285 10.4293 15.9999L10.3015 16.1468C10.2811 16.171 10.261 16.1949 10.2413 16.2187L10.1273 16.359L9.72862 16.8706L9.63585 16.9849L9.54283 17.0932L9.44807 17.1954C9.04752 17.6079 8.56261 17.8534 7.50548 17.8534C4.67239 17.8534 2.40831 11.081 5.44562 8.09344C8.48293 5.10585 20 5.25732 20 8.92641ZM19.1506 8.92641C19.1506 7.48512 15.7808 6.73812 12.3758 6.86089L12.0174 6.87704C9.56943 7.00941 7.16373 7.59497 6.0413 8.69902C4.88837 9.83308 4.56342 11.8427 5.09596 13.8788C5.57907 15.7259 6.63507 17.0039 7.50548 17.0039C8.35989 17.0039 8.6203 16.8812 8.99552 16.4263L9.44831 15.848C9.67479 15.5632 9.88699 15.3218 10.1352 15.0767C10.7804 14.4396 11.5911 13.8656 12.6836 13.3154C13.306 13.0021 13.9269 12.7341 14.6155 12.4733L15.0347 12.3186L16.7563 11.7187L16.9968 11.6304L17.2218 11.5434C17.258 11.529 17.2936 11.5146 17.3285 11.5002L17.531 11.4141L17.7189 11.3279C18.8342 10.794 19.1506 10.2138 19.1506 8.92641Z" fill="#08B89D"/>
<path d="M12.2712 14.4577C12.1082 14.6264 11.8393 14.631 11.6706 14.468C11.5019 14.305 11.4973 14.0361 11.6603 13.8674C12.354 13.1496 12.3855 12.229 11.7086 11.0009C11.5954 10.7954 11.6702 10.5371 11.8756 10.4239C12.0811 10.3107 12.3394 10.3854 12.4526 10.5909C13.2956 12.1206 13.2504 13.4444 12.2712 14.4577Z" fill="#08B89D"/>
</svg>
